<svg width="137" height="30" viewBox="0 0 137 30" fill="none" xmlns="http://www.w3.org/2000/svg">
<path d="M10.3926 29H0V20.5996H9.65723L10.3926 29ZM22.998 29H11.6895L10.9541 20.5996H20.7471L22.998 29ZM28 29H24.3359L22.085 20.5996H28V29ZM9.54492 19.3076H0V10.6924H8.79102L9.54492 19.3076ZM13.3955 10.6924C13.7136 13.2422 15.8875 15.2158 18.5234 15.2158C18.7836 15.2158 19.0392 15.1953 19.2891 15.1582L20.4014 19.3076H10.8418L10.0879 10.6924H13.3955ZM28 19.3076H21.7393L20.5332 14.8096C22.1997 14.1054 23.4183 12.5524 23.6504 10.6924H28V19.3076ZM8.67773 9.40039H0V1H7.94238L8.67773 9.40039ZM16.6299 5.23535C14.9036 5.91525 13.6328 7.49691 13.3955 9.40039H9.97461L9.24023 1H15.4951L16.6299 5.23535ZM28 9.40039H23.6514C23.3335 6.85045 21.1594 4.87713 18.5234 4.87695C18.3063 4.87695 18.092 4.89099 17.8818 4.91699L16.833 1H28V9.40039Z" fill="url(#paint0_linear_12821_3070)"/>
<path d="M46.296 23L42.6 16.472H41.016V23H37.656V6.248H43.944C45.24 6.248 46.344 6.48 47.256 6.944C48.168 7.392 48.848 8.008 49.296 8.792C49.76 9.56 49.992 10.424 49.992 11.384C49.992 12.488 49.672 13.488 49.032 14.384C48.392 15.264 47.44 15.872 46.176 16.208L50.184 23H46.296ZM41.016 13.952H43.824C44.736 13.952 45.416 13.736 45.864 13.304C46.312 12.856 46.536 12.24 46.536 11.456C46.536 10.688 46.312 10.096 45.864 9.68C45.416 9.248 44.736 9.032 43.824 9.032H41.016V13.952ZM58.935 23.216C57.655 23.216 56.503 22.936 55.479 22.376C54.455 21.8 53.647 20.992 53.055 19.952C52.479 18.912 52.191 17.712 52.191 16.352C52.191 14.992 52.487 13.792 53.079 12.752C53.687 11.712 54.511 10.912 55.551 10.352C56.591 9.776 57.751 9.488 59.031 9.488C60.311 9.488 61.471 9.776 62.511 10.352C63.551 10.912 64.367 11.712 64.959 12.752C65.567 13.792 65.871 14.992 65.871 16.352C65.871 17.712 65.559 18.912 64.935 19.952C64.327 20.992 63.495 21.8 62.439 22.376C61.399 22.936 60.231 23.216 58.935 23.216ZM58.935 20.288C59.543 20.288 60.111 20.144 60.639 19.856C61.183 19.552 61.615 19.104 61.935 18.512C62.255 17.92 62.415 17.2 62.415 16.352C62.415 15.088 62.079 14.12 61.407 13.448C60.751 12.76 59.943 12.416 58.983 12.416C58.023 12.416 57.215 12.76 56.559 13.448C55.919 14.12 55.599 15.088 55.599 16.352C55.599 17.616 55.911 18.592 56.535 19.28C57.175 19.952 57.975 20.288 58.935 20.288ZM71.6957 11.624C72.1277 11.016 72.7197 10.512 73.4717 10.112C74.2397 9.696 75.1117 9.488 76.0877 9.488C77.2237 9.488 78.2477 9.768 79.1597 10.328C80.0877 10.888 80.8157 11.688 81.3437 12.728C81.8877 13.752 82.1597 14.944 82.1597 16.304C82.1597 17.664 81.8877 18.872 81.3437 19.928C80.8157 20.968 80.0877 21.776 79.1597 22.352C78.2477 22.928 77.2237 23.216 76.0877 23.216C75.1117 23.216 74.2477 23.016 73.4957 22.616C72.7597 22.216 72.1597 21.712 71.6957 21.104V29.336H68.3357V9.704H71.6957V11.624ZM78.7277 16.304C78.7277 15.504 78.5597 14.816 78.2237 14.24C77.9037 13.648 77.4717 13.2 76.9277 12.896C76.3997 12.592 75.8237 12.44 75.1997 12.44C74.5917 12.44 74.0157 12.6 73.4717 12.92C72.9437 13.224 72.5117 13.672 72.1757 14.264C71.8557 14.856 71.6957 15.552 71.6957 16.352C71.6957 17.152 71.8557 17.848 72.1757 18.44C72.5117 19.032 72.9437 19.488 73.4717 19.808C74.0157 20.112 74.5917 20.264 75.1997 20.264C75.8237 20.264 76.3997 20.104 76.9277 19.784C77.4717 19.464 77.9037 19.008 78.2237 18.416C78.5597 17.824 78.7277 17.12 78.7277 16.304ZM96.9613 16.064C96.9613 16.544 96.9293 16.976 96.8653 17.36H87.1453C87.2253 18.32 87.5613 19.072 88.1533 19.616C88.7453 20.16 89.4733 20.432 90.3373 20.432C91.5853 20.432 92.4733 19.896 93.0013 18.824H96.6253C96.2413 20.104 95.5053 21.16 94.4173 21.992C93.3293 22.808 91.9933 23.216 90.4093 23.216C89.1293 23.216 87.9773 22.936 86.9533 22.376C85.9453 21.8 85.1533 20.992 84.5773 19.952C84.0173 18.912 83.7373 17.712 83.7373 16.352C83.7373 14.976 84.0173 13.768 84.5773 12.728C85.1373 11.688 85.9213 10.888 86.9293 10.328C87.9373 9.768 89.0973 9.488 90.4093 9.488C91.6733 9.488 92.8013 9.76 93.7933 10.304C94.8013 10.848 95.5773 11.624 96.1213 12.632C96.6813 13.624 96.9613 14.768 96.9613 16.064ZM93.4813 15.104C93.4653 14.24 93.1533 13.552 92.5453 13.04C91.9373 12.512 91.1933 12.248 90.3133 12.248C89.4813 12.248 88.7773 12.504 88.2013 13.016C87.6413 13.512 87.2973 14.208 87.1693 15.104H93.4813ZM98.5498 16.304C98.5498 14.96 98.8138 13.768 99.3418 12.728C99.8858 11.688 100.622 10.888 101.55 10.328C102.478 9.768 103.51 9.488 104.646 9.488C105.51 9.488 106.334 9.68 107.118 10.064C107.902 10.432 108.526 10.928 108.99 11.552V5.24H112.398V23H108.99V21.032C108.574 21.688 107.99 22.216 107.238 22.616C106.486 23.016 105.614 23.216 104.622 23.216C103.502 23.216 102.478 22.928 101.55 22.352C100.622 21.776 99.8858 20.968 99.3418 19.928C98.8138 18.872 98.5498 17.664 98.5498 16.304ZM109.014 16.352C109.014 15.536 108.854 14.84 108.534 14.264C108.214 13.672 107.782 13.224 107.238 12.92C106.694 12.6 106.11 12.44 105.486 12.44C104.862 12.44 104.286 12.592 103.758 12.896C103.23 13.2 102.798 13.648 102.462 14.24C102.142 14.816 101.982 15.504 101.982 16.304C101.982 17.104 102.142 17.808 102.462 18.416C102.798 19.008 103.23 19.464 103.758 19.784C104.302 20.104 104.878 20.264 105.486 20.264C106.11 20.264 106.694 20.112 107.238 19.808C107.782 19.488 108.214 19.04 108.534 18.464C108.854 17.872 109.014 17.168 109.014 16.352ZM117.383 8.12C116.791 8.12 116.295 7.936 115.895 7.568C115.511 7.184 115.319 6.712 115.319 6.152C115.319 5.592 115.511 5.128 115.895 4.76C116.295 4.376 116.791 4.184 117.383 4.184C117.975 4.184 118.463 4.376 118.847 4.76C119.247 5.128 119.447 5.592 119.447 6.152C119.447 6.712 119.247 7.184 118.847 7.568C118.463 7.936 117.975 8.12 117.383 8.12ZM119.039 9.704V23H115.679V9.704H119.039ZM121.495 16.304C121.495 14.96 121.759 13.768 122.287 12.728C122.831 11.688 123.559 10.888 124.471 10.328C125.399 9.768 126.431 9.488 127.567 9.488C128.559 9.488 129.423 9.688 130.159 10.088C130.911 10.488 131.511 10.992 131.959 11.6V9.704H135.343V23H131.959V21.056C131.527 21.68 130.927 22.2 130.159 22.616C129.407 23.016 128.535 23.216 127.543 23.216C126.423 23.216 125.399 22.928 124.471 22.352C123.559 21.776 122.831 20.968 122.287 19.928C121.759 18.872 121.495 17.664 121.495 16.304ZM131.959 16.352C131.959 15.536 131.799 14.84 131.479 14.264C131.159 13.672 130.727 13.224 130.183 12.92C129.639 12.6 129.055 12.44 128.431 12.44C127.807 12.44 127.231 12.592 126.703 12.896C126.175 13.2 125.743 13.648 125.407 14.24C125.087 14.816 124.927 15.504 124.927 16.304C124.927 17.104 125.087 17.808 125.407 18.416C125.743 19.008 126.175 19.464 126.703 19.784C127.247 20.104 127.823 20.264 128.431 20.264C129.055 20.264 129.639 20.112 130.183 19.808C130.727 19.488 131.159 19.04 131.479 18.464C131.799 17.872 131.959 17.168 131.959 16.352Z" fill="url(#paint1_linear_12821_3070)"/>
<defs>
<linearGradient id="paint0_linear_12821_3070" x1="28" y1="14.2344" x2="0" y2="14.2344" gradientUnits="userSpaceOnUse">
<stop stop-color="#A0FFBB"/>
<stop offset="1" stop-color="#4696FF"/>
</linearGradient>
<linearGradient id="paint1_linear_12821_3070" x1="36" y1="15" x2="137" y2="15" gradientUnits="userSpaceOnUse">
<stop stop-color="#4696FF"/>
<stop offset="1" stop-color="#A0FFBB"/>
</linearGradient>
</defs>
</svg>
